{"glyphs":{"0":{"ha":1305,"x_min":71,"x_max":1234,"o":"m 444 194 l 1040 671 l 1040 388 q 984 251 1040 308 q 847 194 927 194 l 444 194 m 861 776 l 265 298 l 265 582 q 322 719 265 662 q 459 776 379 776 l 861 776 m 71 0 l 847 0 q 1121 114 1007 0 q 1234 388 1234 227 l 1234 969 l 459 969 q 185 856 298 969 q 71 582 71 742 l 71 0 z "},"1":{"ha":433,"x_min":71,"x_max":362,"o":"m 71 969 l 71 776 l 168 776 l 168 0 l 362 0 l 362 969 l 71 969 z "},"2":{"ha":1257,"x_min":71,"x_max":1186,"o":"m 1067 500 l 1070 503 q 1186 715 1186 577 q 1112 895 1186 821 q 932 969 1037 969 l 71 969 l 71 776 l 932 776 q 989 735 975 776 q 976 675 1001 701 q 948 656 968 667 q 525 427 895 628 q 142 219 270 288 q 71 181 119 207 l 71 0 l 1137 0 l 1137 194 l 502 194 l 1063 498 l 1067 500 z "},"3":{"ha":1208,"x_min":71,"x_max":1137,"o":"m 71 969 l 71 776 l 847 776 q 916 747 887 776 q 944 679 944 719 q 916 610 944 639 q 847 582 887 582 l 313 582 l 313 388 l 847 388 q 916 359 887 388 q 944 291 944 331 l 944 194 l 71 194 l 71 0 l 1137 0 l 1137 291 q 1063 485 1137 402 q 1137 679 1137 568 q 1053 884 1137 799 q 847 969 967 969 l 71 969 z "},"4":{"ha":1208,"x_min":71,"x_max":1137,"o":"m 490 969 l 71 389 l 71 194 l 750 194 l 750 0 l 944 0 l 944 194 l 1137 194 l 1137 388 l 944 388 l 944 582 l 750 582 l 750 388 l 309 388 l 729 969 l 490 969 z "},"5":{"ha":1208,"x_min":71,"x_max":1137,"o":"m 71 388 l 847 388 q 916 359 887 388 q 944 291 944 331 q 916 222 944 251 q 847 194 887 194 l 71 194 l 71 0 l 847 0 q 1053 85 967 0 q 1137 291 1137 171 q 1053 496 1137 411 q 847 582 967 582 l 265 582 l 265 776 l 1137 776 l 1137 969 l 71 969 l 71 388 z "},"6":{"ha":1208,"x_min":71,"x_max":1137,"o":"m 459 194 q 322 251 379 194 q 265 388 265 308 l 847 388 q 916 359 887 388 q 944 291 944 331 q 916 222 944 251 q 847 194 887 194 l 459 194 m 265 582 q 322 719 265 662 q 459 776 379 776 l 1089 776 l 1089 969 l 459 969 q 185 856 298 969 q 71 582 71 742 l 71 388 q 185 114 71 227 q 459 0 298 0 l 847 0 q 1053 85 967 0 q 1137 291 1137 170 q 1053 496 1137 411 q 847 582 967 582 l 265 582 z "},"7":{"ha":1208,"x_min":71,"x_max":1137,"o":"m 71 969 l 71 776 l 870 776 l 165 0 l 427 0 l 1137 782 l 1137 969 l 71 969 z "},"8":{"ha":1215,"x_min":71,"x_max":1143,"o":"m 949 679 q 922 610 949 639 q 853 582 893 582 l 366 582 q 298 610 326 582 q 269 677 269 637 q 297 747 269 718 q 366 776 325 776 l 949 776 l 949 679 m 267 194 l 269 292 q 298 359 269 332 q 366 388 326 388 l 853 388 q 922 359 893 388 q 949 291 949 331 q 922 222 949 251 q 853 194 893 194 l 267 194 m 159 883 q 75 675 73 796 q 150 485 76 566 q 75 294 76 403 l 71 0 l 853 0 q 1059 85 973 0 q 1143 291 1143 170 q 1069 485 1143 402 q 1143 679 1143 568 l 1143 969 l 366 969 q 159 883 244 969 z "},"9":{"ha":1213,"x_min":71,"x_max":1141,"o":"m 294 610 q 267 680 266 640 q 296 747 267 720 q 363 776 323 776 l 850 776 q 919 747 890 776 q 947 679 947 719 l 947 582 l 363 582 q 294 610 323 582 m 363 969 q 159 885 245 969 q 73 682 74 801 q 157 474 71 561 q 363 388 242 388 l 947 388 l 947 0 l 1141 0 l 1141 679 q 1056 884 1141 799 q 850 969 971 969 l 363 969 z "},"\u0000":{"ha":0,"x_min":0,"x_max":0,"o":""}," ":{"ha":345,"x_min":0,"x_max":0,"o":""},"!":{"ha":336,"x_min":71,"x_max":265,"o":"m 71 0 l 265 0 l 265 194 l 71 194 l 71 0 m 71 242 l 265 242 l 265 969 l 71 969 l 71 242 z "},"\"":{"ha":481,"x_min":71,"x_max":410,"o":"m 71 825 l 216 825 l 216 1164 l 71 1164 l 71 825 m 265 825 l 410 825 l 410 1164 l 265 1164 l 265 825 z "},"#":{"ha":1112,"x_min":71,"x_max":1040,"o":"m 677 969 l 655 751 l 510 751 l 532 969 l 338 969 l 316 751 l 71 751 l 71 557 l 296 557 l 282 412 l 71 412 l 71 218 l 262 218 l 241 0 l 435 0 l 456 218 l 602 218 l 580 0 l 774 0 l 796 218 l 1040 218 l 1040 412 l 815 412 l 830 557 l 1040 557 l 1040 751 l 849 751 l 871 969 l 677 969 m 490 557 l 636 557 l 621 412 l 476 412 l 490 557 z "},"$":{"ha":1305,"x_min":71,"x_max":1234,"o":"m 750 1115 l 556 1115 l 556 921 l 459 921 q 185 808 298 921 q 71 534 71 694 l 71 388 l 1034 388 q 966 284 1018 325 q 847 243 913 243 l 71 243 l 71 49 l 556 49 l 556 -145 l 750 -145 l 750 49 l 847 49 q 1121 163 1007 49 q 1234 437 1234 276 l 1234 582 l 271 582 q 339 686 288 645 q 459 728 392 728 l 1234 728 l 1234 921 l 750 921 l 750 1115 z "},"%":{"ha":836,"x_min":71,"x_max":764,"o":"m 296 776 l 102 776 l 102 582 l 296 582 l 296 776 m 539 194 l 733 194 l 733 388 l 539 388 l 539 194 m 556 969 l 71 0 l 279 0 l 764 969 l 556 969 z "},"&":{"ha":1358,"x_min":71,"x_max":1286,"o":"m 947 194 l 363 194 q 294 222 323 194 q 267 292 266 252 q 296 359 267 332 q 363 388 323 388 l 947 388 l 947 194 m 1141 679 l 947 679 l 947 582 l 363 582 q 296 610 323 582 q 267 677 267 637 q 294 747 266 718 q 363 776 323 776 l 1044 776 l 1044 969 l 363 969 q 157 883 242 969 q 73 675 71 796 q 147 485 74 566 q 73 294 74 403 q 157 87 71 173 q 363 0 242 0 l 1141 0 l 1141 388 l 1286 388 l 1286 582 l 1141 582 l 1141 679 z "},"'":{"ha":288,"x_min":71,"x_max":216,"o":"m 71 825 l 216 825 l 216 1164 l 71 1164 l 71 825 z "},"(":{"ha":530,"x_min":71,"x_max":459,"o":"m 71 1269 l 71 -282 l 459 -282 l 459 -88 l 265 -88 l 265 1075 l 459 1075 l 459 1269 l 71 1269 z "},")":{"ha":530,"x_min":71,"x_max":459,"o":"m 71 1269 l 71 1075 l 265 1075 l 265 -88 l 71 -88 l 71 -282 l 459 -282 l 459 1269 l 71 1269 z "},"+":{"ha":966,"x_min":71,"x_max":895,"o":"m 387 896 l 387 581 l 71 581 l 71 387 l 387 387 l 387 72 l 580 72 l 580 387 l 895 387 l 895 581 l 580 581 l 580 896 l 387 896 z "},",":{"ha":385,"x_min":71,"x_max":313,"o":"m 119 193 l 71 -195 l 168 -195 l 313 193 l 119 193 z "},"-":{"ha":966,"x_min":71,"x_max":895,"o":"m 71 388 l 895 388 l 895 582 l 71 582 l 71 388 z "},".":{"ha":336,"x_min":71,"x_max":265,"o":"m 71 0 l 265 0 l 265 194 l 71 194 l 71 0 z "},"/":{"ha":836,"x_min":71,"x_max":764,"o":"m 556 969 l 71 0 l 279 0 l 764 969 l 556 969 z "},":":{"ha":336,"x_min":71,"x_max":265,"o":"m 71 0 l 265 0 l 265 194 l 71 194 l 71 0 m 71 242 l 265 242 l 265 436 l 71 436 l 71 242 z "},";":{"ha":385,"x_min":71,"x_max":313,"o":"m 119 241 l 313 241 l 313 435 l 119 435 l 119 241 m 119 193 l 71 -195 l 168 -195 l 313 193 l 119 193 z "},"=":{"ha":966,"x_min":71,"x_max":895,"o":"m 71 509 l 895 509 l 895 703 l 71 703 l 71 509 m 71 267 l 895 267 l 895 461 l 71 461 l 71 267 z "},"?":{"ha":1213,"x_min":71,"x_max":1141,"o":"m 157 883 q 73 675 71 796 l 267 677 q 294 747 266 718 q 363 776 323 776 l 947 776 l 947 679 q 919 610 947 639 q 850 582 890 582 l 459 582 l 463 241 l 656 243 l 655 388 l 850 388 q 1056 473 970 388 q 1141 679 1141 558 l 1141 969 l 363 969 q 157 883 242 969 m 463 0 l 656 0 l 656 194 l 463 194 l 463 0 z "},"@":{"ha":1305,"x_min":71,"x_max":1234,"o":"m 532 557 l 701 557 q 753 536 732 557 q 774 485 774 515 l 774 412 l 604 412 q 553 433 574 412 q 532 485 532 454 l 532 557 m 71 969 l 71 388 q 185 114 71 227 q 459 0 298 0 l 653 0 l 653 194 l 459 194 q 322 251 379 194 q 265 388 265 308 l 265 776 l 847 776 q 984 719 927 776 q 1040 582 1040 662 l 1040 194 l 920 194 l 920 485 q 855 639 920 575 q 701 703 791 703 l 387 703 l 387 485 q 450 330 387 395 q 604 267 514 267 l 774 267 l 774 0 l 1234 0 l 1234 582 q 1121 856 1234 742 q 847 969 1007 969 l 71 969 z "},"A":{"ha":1305,"x_min":71,"x_max":1234,"o":"m 265 485 l 265 776 l 847 776 q 984 719 927 776 q 1040 582 1040 662 l 1040 485 l 265 485 m 71 969 l 71 0 l 265 0 l 265 291 l 1040 291 l 1040 0 l 1234 0 l 1234 582 q 1121 856 1234 742 q 847 969 1007 969 l 71 969 z "},"B":{"ha":1305,"x_min":71,"x_max":1234,"o":"m 265 388 l 750 388 q 920 333 844 388 q 1024 194 994 279 l 265 194 l 265 388 m 265 776 l 1024 776 q 920 636 994 690 q 750 582 844 582 l 265 582 l 265 776 m 71 0 l 1234 0 l 1234 97 q 1181 317 1234 214 q 1040 485 1131 417 q 1181 652 1131 553 q 1234 873 1234 755 l 1234 969 l 71 969 l 71 0 z "},"C":{"ha":1305,"x_min":71,"x_max":1234,"o":"m 71 969 l 71 0 l 1234 0 l 1234 291 l 1040 291 l 1040 194 l 265 194 l 265 776 l 1040 776 l 1040 679 l 1234 679 l 1234 969 l 71 969 z "},"D":{"ha":1305,"x_min":71,"x_max":1234,"o":"m 1040 388 q 984 251 1040 308 q 847 194 927 194 l 265 194 l 265 776 l 847 776 q 984 719 927 776 q 1040 582 1040 662 l 1040 388 m 71 969 l 71 0 l 847 0 q 1121 114 1007 0 q 1234 388 1234 227 l 1234 582 q 1121 856 1234 742 q 847 969 1007 969 l 71 969 z "},"E":{"ha":1305,"x_min":71,"x_max":1234,"o":"m 71 969 l 71 0 l 1234 0 l 1234 194 l 265 194 l 265 388 l 1234 388 l 1234 582 l 265 582 l 265 776 l 1234 776 l 1234 969 l 71 969 z "},"F":{"ha":1305,"x_min":71,"x_max":1234,"o":"m 71 969 l 71 0 l 265 0 l 265 388 l 1234 388 l 1234 582 l 265 582 l 265 776 l 1234 776 l 1234 969 l 71 969 z "},"G":{"ha":1305,"x_min":71,"x_max":1234,"o":"m 71 388 q 185 114 71 227 q 459 0 298 0 l 1234 0 l 1234 582 l 556 582 l 556 388 l 1040 388 l 1040 194 l 459 194 q 322 251 379 194 q 265 388 265 308 l 265 776 l 1234 776 l 1234 969 l 71 969 l 71 388 z "},"H":{"ha":1305,"x_min":71,"x_max":1234,"o":"m 1040 969 l 1040 582 l 265 582 l 265 969 l 71 969 l 71 0 l 265 0 l 265 388 l 1040 388 l 1040 0 l 1234 0 l 1234 969 l 1040 969 z "},"I":{"ha":336,"x_min":71,"x_max":265,"o":"m 71 0 l 265 0 l 265 969 l 71 969 l 71 0 z "},"J":{"ha":1208,"x_min":71,"x_max":1137,"o":"m 701 776 l 944 776 l 944 388 q 887 251 944 308 q 750 194 830 194 l 71 194 l 71 0 l 750 0 q 1024 114 910 0 q 1137 388 1137 227 l 1137 969 l 701 969 l 701 776 z "},"K":{"ha":1295,"x_min":71,"x_max":1224,"o":"m 885 969 l 265 538 l 265 969 l 71 969 l 71 0 l 265 0 l 265 302 l 533 488 l 964 0 l 1223 0 l 693 600 l 1224 969 l 885 969 z "},"L":{"ha":1305,"x_min":71,"x_max":1234,"o":"m 71 969 l 71 0 l 1234 0 l 1234 194 l 265 194 l 265 969 l 71 969 z "},"M":{"ha":1790,"x_min":71,"x_max":1719,"o":"m 1450 969 l 895 340 l 340 969 l 71 969 l 71 0 l 265 0 l 265 762 l 895 47 l 1525 762 l 1525 0 l 1719 0 l 1719 969 l 1450 969 z "},"N":{"ha":1305,"x_min":71,"x_max":1234,"o":"m 1040 969 l 1040 234 l 305 969 l 71 969 l 71 0 l 265 0 l 265 735 l 1000 0 l 1234 0 l 1234 969 l 1040 969 z "},"O":{"ha":1305,"x_min":71,"x_max":1234,"o":"m 1040 388 q 984 251 1040 308 q 847 194 927 194 l 265 194 l 265 582 q 322 719 265 662 q 459 776 379 776 l 1040 776 l 1040 388 m 71 0 l 847 0 q 1121 114 1007 0 q 1234 388 1234 227 l 1234 969 l 459 969 q 185 856 298 969 q 71 582 71 742 l 71 0 z "},"P":{"ha":1305,"x_min":71,"x_max":1234,"o":"m 265 776 l 1040 776 q 984 639 1040 695 q 847 582 927 582 l 265 582 l 265 776 m 71 0 l 265 0 l 265 388 l 847 388 q 1121 501 1007 388 q 1234 776 1234 615 l 1234 969 l 71 969 l 71 0 z "},"Q":{"ha":1305,"x_min":71,"x_max":1234,"o":"m 1040 388 q 958 229 1040 287 l 924 340 l 706 340 l 750 194 l 265 194 l 265 582 q 322 719 265 662 q 459 776 379 776 l 1040 776 l 1040 388 m 71 0 l 808 0 l 852 -145 l 1069 -145 l 1015 39 q 1173 179 1114 86 q 1234 388 1234 275 l 1234 970 l 459 970 q 185 856 298 970 q 71 582 71 743 l 71 0 z "},"R":{"ha":1305,"x_min":71,"x_max":1234,"o":"m 265 776 l 1024 776 q 920 636 994 690 q 750 582 844 582 l 265 582 l 265 776 m 71 0 l 265 0 l 265 388 l 750 388 q 956 302 870 388 q 1040 97 1040 217 l 1040 0 l 1234 0 l 1234 97 q 1181 317 1234 214 q 1040 485 1131 417 q 1181 652 1131 553 q 1234 873 1234 755 l 1234 969 l 71 969 l 71 0 z "},"S":{"ha":1305,"x_min":71,"x_max":1234,"o":"m 71 388 l 1040 388 q 984 251 1040 308 q 847 194 927 194 l 71 194 l 71 0 l 847 0 q 1121 114 1007 0 q 1234 388 1234 227 l 1234 582 l 265 582 q 322 719 265 662 q 459 776 379 776 l 1234 776 l 1234 969 l 459 969 q 185 856 298 969 q 71 582 71 742 l 71 388 z "},"T":{"ha":1241,"x_min":71,"x_max":1170,"o":"m 71 969 l 71 776 l 524 776 l 524 0 l 718 0 l 718 776 l 1170 776 l 1170 969 l 71 969 z "},"U":{"ha":1305,"x_min":71,"x_max":1234,"o":"m 1040 388 q 984 251 1040 308 q 847 194 927 194 l 265 194 l 265 969 l 71 969 l 71 0 l 847 0 q 1121 114 1007 0 q 1234 388 1234 227 l 1234 969 l 1040 969 l 1040 388 z "},"V":{"ha":1279,"x_min":71,"x_max":1208,"o":"m 1002 969 l 720 194 l 559 194 l 277 969 l 71 969 l 424 0 l 855 0 l 1208 969 l 1002 969 z "},"W":{"ha":1798,"x_min":71,"x_max":1727,"o":"m 1520 969 l 1238 194 l 1141 194 l 1000 583 l 793 583 l 652 194 l 559 194 l 277 969 l 71 969 l 424 0 l 787 0 l 897 300 l 1006 0 l 1374 0 l 1727 969 l 1520 969 z "},"X":{"ha":1294,"x_min":71,"x_max":1223,"o":"m 960 969 l 647 628 l 334 969 l 71 969 l 515 485 l 71 0 l 334 0 l 647 341 l 960 0 l 1223 0 l 779 485 l 1223 969 l 960 969 z "},"Y":{"ha":1304,"x_min":71,"x_max":1233,"o":"m 989 969 l 653 533 l 652 533 l 316 969 l 71 969 l 555 340 l 555 0 l 749 0 l 749 340 l 1233 969 l 989 969 z "},"Z":{"ha":1257,"x_min":71,"x_max":1186,"o":"m 71 969 l 71 776 l 877 776 l 71 215 l 71 0 l 1186 0 l 1186 194 l 380 194 l 1186 754 l 1186 969 l 71 969 z "},"_":{"ha":966,"x_min":71,"x_max":895,"o":"m 71 0 l 895 0 l 895 194 l 71 194 l 71 0 z "},"`":{"ha":409,"x_min":71,"x_max":338,"o":"m 176 1141 l 71 1097 l 233 840 l 338 884 l 176 1141 z "},"a":{"ha":1305,"x_min":71,"x_max":1234,"o":"m 1040 485 l 265 485 l 265 582 q 322 719 265 662 q 459 776 379 776 l 1040 776 l 1040 485 m 71 0 l 265 0 l 265 291 l 1040 291 l 1040 0 l 1234 0 l 1234 969 l 459 969 q 185 856 298 969 q 71 582 71 742 l 71 0 z "},"b":{"ha":1305,"x_min":71,"x_max":1234,"o":"m 265 388 l 750 388 q 920 333 844 388 q 1024 194 994 279 l 265 194 l 265 388 m 265 776 l 1024 776 q 920 636 994 690 q 750 582 844 582 l 265 582 l 265 776 m 71 0 l 1234 0 l 1234 97 q 1181 317 1234 214 q 1040 485 1131 417 q 1181 652 1131 553 q 1234 873 1234 755 l 1234 969 l 71 969 l 71 0 z "},"c":{"ha":1305,"x_min":71,"x_max":1234,"o":"m 71 969 l 71 0 l 1234 0 l 1234 291 l 1040 291 l 1040 194 l 265 194 l 265 776 l 1040 776 l 1040 679 l 1234 679 l 1234 969 l 71 969 z "},"d":{"ha":1305,"x_min":71,"x_max":1234,"o":"m 1040 388 q 984 251 1040 308 q 847 194 927 194 l 265 194 l 265 776 l 847 776 q 984 719 927 776 q 1040 582 1040 662 l 1040 388 m 71 969 l 71 0 l 847 0 q 1121 114 1007 0 q 1234 388 1234 227 l 1234 582 q 1121 856 1234 742 q 847 969 1007 969 l 71 969 z "},"e":{"ha":1257,"x_min":71,"x_max":1186,"o":"m 71 0 l 1186 0 l 1186 194 l 71 194 l 71 0 m 71 776 l 1186 776 l 1186 969 l 71 969 l 71 776 m 71 388 l 1186 388 l 1186 582 l 71 582 l 71 388 z "},"f":{"ha":1305,"x_min":71,"x_max":1234,"o":"m 71 969 l 71 0 l 265 0 l 265 388 l 1234 388 l 1234 582 l 265 582 l 265 776 l 1234 776 l 1234 969 l 71 969 z "},"g":{"ha":1305,"x_min":71,"x_max":1234,"o":"m 71 0 l 1234 0 l 1234 582 l 556 582 l 556 388 l 1040 388 l 1040 194 l 265 194 l 265 582 q 322 719 265 662 q 459 776 379 776 l 1234 776 l 1234 969 l 459 969 q 185 856 298 969 q 71 582 71 742 l 71 0 z "},"h":{"ha":1305,"x_min":71,"x_max":1234,"o":"m 1040 969 l 1040 582 l 265 582 l 265 969 l 71 969 l 71 0 l 265 0 l 265 388 l 1040 388 l 1040 0 l 1234 0 l 1234 969 l 1040 969 z "},"i":{"ha":336,"x_min":71,"x_max":265,"o":"m 71 0 l 265 0 l 265 969 l 71 969 l 71 0 z "},"j":{"ha":1208,"x_min":71,"x_max":1137,"o":"m 701 776 l 944 776 l 944 388 q 887 251 944 308 q 750 194 830 194 l 71 194 l 71 0 l 750 0 q 1024 114 910 0 q 1137 388 1137 227 l 1137 969 l 701 969 l 701 776 z "},"k":{"ha":1295,"x_min":71,"x_max":1224,"o":"m 885 969 l 265 538 l 265 969 l 71 969 l 71 0 l 265 0 l 265 302 l 533 488 l 964 0 l 1223 0 l 693 600 l 1224 969 l 885 969 z "},"l":{"ha":1305,"x_min":71,"x_max":1234,"o":"m 71 969 l 71 0 l 1234 0 l 1234 194 l 265 194 l 265 969 l 71 969 z "},"m":{"ha":1790,"x_min":71,"x_max":1719,"o":"m 895 838 q 604 969 779 969 l 71 969 l 71 0 l 265 0 l 265 776 l 604 776 q 741 719 684 776 q 798 582 798 662 l 798 194 l 992 194 l 992 582 q 1049 719 992 662 q 1186 776 1106 776 l 1525 776 l 1525 0 l 1719 0 l 1719 969 l 1186 969 q 895 838 1011 969 z "},"n":{"ha":1305,"x_min":71,"x_max":1234,"o":"m 71 969 l 71 0 l 265 0 l 265 776 l 847 776 q 984 719 927 776 q 1040 582 1040 662 l 1040 0 l 1234 0 l 1234 582 q 1121 856 1234 742 q 847 969 1007 969 l 71 969 z "},"o":{"ha":1305,"x_min":71,"x_max":1234,"o":"m 1040 194 l 459 194 q 322 251 379 194 q 265 388 265 308 l 265 776 l 847 776 q 984 719 927 776 q 1040 582 1040 662 l 1040 194 m 71 969 l 71 388 q 185 114 71 227 q 459 0 298 0 l 1234 0 l 1234 582 q 1121 856 1234 742 q 847 969 1007 969 l 71 969 z "},"p":{"ha":1305,"x_min":71,"x_max":1234,"o":"m 265 776 l 1040 776 q 984 639 1040 695 q 847 582 927 582 l 265 582 l 265 776 m 71 0 l 265 0 l 265 388 l 847 388 q 1121 501 1007 388 q 1234 776 1234 615 l 1234 969 l 71 969 l 71 0 z "},"q":{"ha":1305,"x_min":71,"x_max":1234,"o":"m 1040 194 l 968 194 l 924 340 l 706 340 l 750 194 l 459 194 q 322 251 379 194 q 265 388 265 308 l 265 776 l 847 776 q 984 719 927 776 q 1040 582 1040 662 l 1040 194 m 71 970 l 71 388 q 185 114 71 228 q 459 0 298 0 l 808 0 l 852 -145 l 1069 -145 l 1026 0 l 1234 0 l 1234 582 q 1121 856 1234 743 q 847 970 1007 970 l 71 970 z "},"r":{"ha":1305,"x_min":71,"x_max":1234,"o":"m 265 776 l 1024 776 q 920 636 994 690 q 750 582 844 582 l 265 582 l 265 776 m 71 0 l 265 0 l 265 388 l 750 388 q 956 302 870 388 q 1040 97 1040 217 l 1040 0 l 1234 0 l 1234 97 q 1181 317 1234 214 q 1040 485 1131 417 q 1181 652 1131 553 q 1234 873 1234 755 l 1234 969 l 71 969 l 71 0 z "},"s":{"ha":1305,"x_min":71,"x_max":1234,"o":"m 71 388 l 1040 388 q 984 251 1040 308 q 847 194 927 194 l 71 194 l 71 0 l 847 0 q 1121 114 1007 0 q 1234 388 1234 227 l 1234 582 l 265 582 q 322 719 265 662 q 459 776 379 776 l 1234 776 l 1234 969 l 459 969 q 185 856 298 969 q 71 582 71 742 l 71 388 z "},"t":{"ha":1241,"x_min":71,"x_max":1170,"o":"m 71 969 l 71 776 l 524 776 l 524 0 l 718 0 l 718 776 l 1170 776 l 1170 969 l 71 969 z "},"u":{"ha":1305,"x_min":71,"x_max":1234,"o":"m 1040 194 l 459 194 q 322 251 379 194 q 265 388 265 308 l 265 969 l 71 969 l 71 388 q 185 114 71 227 q 459 0 298 0 l 1234 0 l 1234 969 l 1040 969 l 1040 194 z "},"v":{"ha":1279,"x_min":71,"x_max":1208,"o":"m 1002 969 l 720 194 l 559 194 l 277 969 l 71 969 l 424 0 l 855 0 l 1208 969 l 1002 969 z "},"w":{"ha":1798,"x_min":71,"x_max":1727,"o":"m 1520 969 l 1238 194 l 1141 194 l 1000 583 l 793 583 l 652 194 l 559 194 l 277 969 l 71 969 l 424 0 l 787 0 l 897 300 l 1006 0 l 1374 0 l 1727 969 l 1520 969 z "},"x":{"ha":1294,"x_min":71,"x_max":1223,"o":"m 960 969 l 647 628 l 334 969 l 71 969 l 515 485 l 71 0 l 334 0 l 647 341 l 960 0 l 1223 0 l 779 485 l 1223 969 l 960 969 z "},"y":{"ha":1304,"x_min":71,"x_max":1233,"o":"m 989 969 l 653 533 l 652 533 l 316 969 l 71 969 l 555 340 l 555 0 l 749 0 l 749 340 l 1233 969 l 989 969 z "},"z":{"ha":1257,"x_min":71,"x_max":1186,"o":"m 71 969 l 71 776 l 877 776 l 71 215 l 71 0 l 1186 0 l 1186 194 l 380 194 l 1186 754 l 1186 969 l 71 969 z "},"¨":{"ha":385,"x_min":71,"x_max":313,"o":"m 216 1021 l 313 1021 l 313 1118 l 216 1118 l 216 1021 m 71 1021 l 168 1021 l 168 1118 l 71 1118 l 71 1021 z "},"´":{"ha":404,"x_min":71,"x_max":333,"o":"m 227 1141 l 71 884 l 177 841 l 333 1098 l 227 1141 z "},"À":{"ha":1305,"x_min":71,"x_max":1234,"o":"m 265 485 l 265 776 l 847 776 q 984 719 927 776 q 1040 582 1040 662 l 1040 485 l 265 485 m 71 969 l 71 0 l 265 0 l 265 291 l 1040 291 l 1040 0 l 1234 0 l 1234 582 q 1121 856 1234 742 q 847 969 1007 969 l 71 969 m 581 1419 l 475 1375 l 637 1118 l 742 1162 l 581 1419 z "},"Á":{"ha":1305,"x_min":71,"x_max":1234,"o":"m 265 485 l 265 776 l 847 776 q 984 719 927 776 q 1040 582 1040 662 l 1040 485 l 265 485 m 71 969 l 71 0 l 265 0 l 265 291 l 1040 291 l 1040 0 l 1234 0 l 1234 582 q 1121 856 1234 742 q 847 969 1007 969 l 71 969 m 722 1419 l 566 1162 l 671 1119 l 827 1376 l 722 1419 z "},"Â":{"ha":1305,"x_min":71,"x_max":1234,"o":"m 265 485 l 265 776 l 847 776 q 984 719 927 776 q 1040 582 1040 662 l 1040 485 l 265 485 m 71 969 l 71 0 l 265 0 l 265 291 l 1040 291 l 1040 0 l 1234 0 l 1234 582 q 1121 856 1234 742 q 847 969 1007 969 l 71 969 m 469 1219 l 546 1161 l 653 1303 l 760 1161 l 837 1219 l 653 1465 l 469 1219 z "},"Ã":{"ha":1305,"x_min":71,"x_max":1234,"o":"m 265 485 l 265 776 l 847 776 q 984 719 927 776 q 1040 582 1040 662 l 1040 485 l 265 485 m 71 969 l 71 0 l 265 0 l 265 291 l 1040 291 l 1040 0 l 1234 0 l 1234 582 q 1121 856 1234 742 q 847 969 1007 969 l 71 969 m 619 1305 q 748 1252 684 1252 q 781 1255 764 1252 q 918 1369 871 1275 l 831 1412 q 761 1350 804 1360 q 680 1379 726 1343 q 518 1428 598 1447 q 389 1314 431 1408 l 477 1274 q 541 1334 501 1324 q 619 1305 574 1341 z "},"Ä":{"ha":1305,"x_min":71,"x_max":1234,"o":"m 265 485 l 265 776 l 847 776 q 984 719 927 776 q 1040 582 1040 662 l 1040 485 l 265 485 m 71 969 l 71 0 l 265 0 l 265 291 l 1040 291 l 1040 0 l 1234 0 l 1234 582 q 1121 856 1234 742 q 847 969 1007 969 l 71 969 m 677 1299 l 774 1299 l 774 1396 l 677 1396 l 677 1299 m 532 1299 l 629 1299 l 629 1396 l 532 1396 l 532 1299 z "},"Å":{"ha":1305,"x_min":71,"x_max":1234,"o":"m 265 485 l 265 776 l 847 776 q 984 719 927 776 q 1040 582 1040 662 l 1040 485 l 265 485 m 71 969 l 71 0 l 265 0 l 265 291 l 1040 291 l 1040 0 l 1234 0 l 1234 582 q 1121 856 1234 742 q 847 969 1007 969 l 71 969 m 653 1257 q 602 1278 623 1257 q 581 1329 581 1299 q 602 1381 581 1360 q 653 1402 623 1402 q 705 1381 684 1402 q 726 1329 726 1360 q 705 1278 726 1299 q 653 1257 684 1257 m 653 1499 q 533 1449 583 1499 q 484 1329 484 1400 q 533 1209 484 1259 q 653 1160 583 1160 q 773 1209 724 1160 q 823 1329 823 1259 q 773 1449 823 1400 q 653 1499 724 1499 z "},"Æ":{"ha":2275,"x_min":71,"x_max":2204,"o":"m 265 485 l 265 582 q 322 719 265 662 q 459 776 379 776 l 1040 776 l 1040 485 l 265 485 m 459 969 q 185 856 298 969 q 71 582 71 742 l 71 0 l 265 0 l 265 291 l 1040 291 l 1040 0 l 2204 0 l 2204 194 l 1234 194 l 1234 388 l 2107 388 l 2107 582 l 1234 582 l 1234 776 l 2204 776 l 2204 969 l 459 969 z "},"Ç":{"ha":1305,"x_min":71,"x_max":1234,"o":"m 71 968 l 71 -1 l 538 -1 l 507 -248 l 604 -248 l 697 -1 l 1234 -1 l 1234 290 l 1040 290 l 1040 193 l 265 193 l 265 774 l 1040 774 l 1040 677 l 1234 677 l 1234 968 l 71 968 z "},"È":{"ha":1305,"x_min":71,"x_max":1234,"o":"m 71 969 l 71 0 l 1234 0 l 1234 194 l 265 194 l 265 388 l 1234 388 l 1234 582 l 265 582 l 265 776 l 1234 776 l 1234 969 l 71 969 m 581 1419 l 475 1375 l 637 1118 l 742 1162 l 581 1419 z "},"É":{"ha":1305,"x_min":71,"x_max":1234,"o":"m 71 969 l 71 0 l 1234 0 l 1234 194 l 265 194 l 265 388 l 1234 388 l 1234 582 l 265 582 l 265 776 l 1234 776 l 1234 969 l 71 969 m 722 1419 l 566 1162 l 671 1119 l 827 1376 l 722 1419 z "},"Ê":{"ha":1305,"x_min":71,"x_max":1234,"o":"m 71 969 l 71 0 l 1234 0 l 1234 194 l 265 194 l 265 388 l 1234 388 l 1234 582 l 265 582 l 265 776 l 1234 776 l 1234 969 l 71 969 m 469 1219 l 546 1161 l 653 1303 l 760 1161 l 837 1219 l 653 1465 l 469 1219 z "},"Ë":{"ha":1305,"x_min":71,"x_max":1234,"o":"m 71 969 l 71 0 l 1234 0 l 1234 194 l 265 194 l 265 388 l 1234 388 l 1234 582 l 265 582 l 265 776 l 1234 776 l 1234 969 l 71 969 m 677 1299 l 774 1299 l 774 1396 l 677 1396 l 677 1299 m 532 1299 l 629 1299 l 629 1396 l 532 1396 l 532 1299 z "},"Ì":{"ha":417,"x_min":71,"x_max":346,"o":"m 152 0 l 346 0 l 346 969 l 152 969 l 152 0 m 176 1419 l 71 1375 l 233 1118 l 338 1162 l 176 1419 z "},"Í":{"ha":414,"x_min":71,"x_max":343,"o":"m 71 0 l 265 0 l 265 969 l 71 969 l 71 0 m 237 1419 l 81 1162 l 186 1119 l 342 1376 l 237 1419 z "},"Î":{"ha":511,"x_min":71,"x_max":440,"o":"m 159 0 l 353 0 l 353 969 l 159 969 l 159 0 m 71 1219 l 149 1161 l 256 1303 l 362 1161 l 439 1219 l 256 1465 l 71 1219 z "},"Ï":{"ha":385,"x_min":71,"x_max":314,"o":"m 96 0 l 290 0 l 290 969 l 96 969 l 96 0 m 216 1299 l 313 1299 l 313 1396 l 216 1396 l 216 1299 m 71 1299 l 168 1299 l 168 1396 l 71 1396 l 71 1299 z "},"Ð":{"ha":1402,"x_min":71,"x_max":1331,"o":"m 1137 388 q 1081 251 1137 308 q 944 194 1024 194 l 362 194 l 362 388 l 895 388 l 895 582 l 362 582 l 362 776 l 944 776 q 1081 719 1024 776 q 1137 582 1137 662 l 1137 388 m 168 969 l 168 582 l 71 582 l 71 388 l 168 388 l 168 0 l 944 0 q 1218 114 1104 0 q 1331 388 1331 227 l 1331 582 q 1218 856 1331 742 q 944 969 1104 969 l 168 969 z "},"Ñ":{"ha":1305,"x_min":71,"x_max":1234,"o":"m 1040 969 l 1040 234 l 305 969 l 71 969 l 71 0 l 265 0 l 265 735 l 1000 0 l 1234 0 l 1234 969 l 1040 969 m 619 1305 q 748 1252 684 1252 q 781 1255 764 1252 q 918 1369 871 1275 l 831 1412 q 761 1350 804 1360 q 680 1379 726 1343 q 518 1428 598 1447 q 389 1314 431 1408 l 477 1274 q 541 1334 501 1324 q 619 1305 574 1341 z "},"Ò":{"ha":1305,"x_min":71,"x_max":1234,"o":"m 1040 388 q 984 251 1040 308 q 847 194 927 194 l 265 194 l 265 582 q 322 719 265 662 q 459 776 379 776 l 1040 776 l 1040 388 m 71 0 l 847 0 q 1121 114 1007 0 q 1234 388 1234 227 l 1234 969 l 459 969 q 185 856 298 969 q 71 582 71 742 l 71 0 m 581 1419 l 475 1375 l 637 1118 l 742 1162 l 581 1419 z "},"Ó":{"ha":1305,"x_min":71,"x_max":1234,"o":"m 1040 388 q 984 251 1040 308 q 847 194 927 194 l 265 194 l 265 582 q 322 719 265 662 q 459 776 379 776 l 1040 776 l 1040 388 m 71 0 l 847 0 q 1121 114 1007 0 q 1234 388 1234 227 l 1234 969 l 459 969 q 185 856 298 969 q 71 582 71 742 l 71 0 m 722 1419 l 566 1162 l 671 1119 l 827 1376 l 722 1419 z "},"Ô":{"ha":1305,"x_min":71,"x_max":1234,"o":"m 1040 388 q 984 251 1040 308 q 847 194 927 194 l 265 194 l 265 582 q 322 719 265 662 q 459 776 379 776 l 1040 776 l 1040 388 m 71 0 l 847 0 q 1121 114 1007 0 q 1234 388 1234 227 l 1234 969 l 459 969 q 185 856 298 969 q 71 582 71 742 l 71 0 m 469 1219 l 546 1161 l 653 1303 l 760 1161 l 837 1219 l 653 1465 l 469 1219 z "},"Õ":{"ha":1305,"x_min":71,"x_max":1234,"o":"m 1040 388 q 984 251 1040 308 q 847 194 927 194 l 265 194 l 265 582 q 322 719 265 662 q 459 776 379 776 l 1040 776 l 1040 388 m 71 0 l 847 0 q 1121 114 1007 0 q 1234 388 1234 227 l 1234 969 l 459 969 q 185 856 298 969 q 71 582 71 742 l 71 0 m 619 1305 q 748 1252 684 1252 q 781 1255 764 1252 q 918 1369 871 1275 l 831 1412 q 761 1350 804 1360 q 680 1379 726 1343 q 518 1428 598 1447 q 389 1314 431 1408 l 477 1274 q 541 1334 501 1324 q 619 1305 574 1341 z "},"Ö":{"ha":1305,"x_min":71,"x_max":1234,"o":"m 1040 388 q 984 251 1040 308 q 847 194 927 194 l 265 194 l 265 582 q 322 719 265 662 q 459 776 379 776 l 1040 776 l 1040 388 m 71 0 l 847 0 q 1121 114 1007 0 q 1234 388 1234 227 l 1234 969 l 459 969 q 185 856 298 969 q 71 582 71 742 l 71 0 m 677 1299 l 774 1299 l 774 1396 l 677 1396 l 677 1299 m 532 1299 l 629 1299 l 629 1396 l 532 1396 l 532 1299 z "},"Ø":{"ha":1305,"x_min":71,"x_max":1234,"o":"m 1040 776 l 1040 388 q 984 251 1040 308 q 847 194 927 194 l 614 194 l 910 776 l 1040 776 m 265 194 l 265 582 q 322 719 265 662 q 459 776 379 776 l 692 776 l 396 194 l 265 194 m 1093 1136 l 920 1224 l 791 970 l 459 970 q 185 856 298 970 q 71 582 71 743 l 71 1 l 297 1 l 212 -165 l 385 -254 l 515 1 l 847 1 q 1121 114 1007 1 q 1234 388 1234 228 l 1234 970 l 1008 970 l 1093 1136 z "},"Ù":{"ha":1305,"x_min":71,"x_max":1234,"o":"m 1040 388 q 984 251 1040 308 q 847 194 927 194 l 265 194 l 265 969 l 71 969 l 71 0 l 847 0 q 1121 114 1007 0 q 1234 388 1234 227 l 1234 969 l 1040 969 l 1040 388 m 581 1419 l 475 1375 l 637 1118 l 742 1162 l 581 1419 z "},"Ú":{"ha":1305,"x_min":71,"x_max":1234,"o":"m 1040 388 q 984 251 1040 308 q 847 194 927 194 l 265 194 l 265 969 l 71 969 l 71 0 l 847 0 q 1121 114 1007 0 q 1234 388 1234 227 l 1234 969 l 1040 969 l 1040 388 m 722 1419 l 566 1162 l 671 1119 l 827 1376 l 722 1419 z "},"Û":{"ha":1305,"x_min":71,"x_max":1234,"o":"m 1040 388 q 984 251 1040 308 q 847 194 927 194 l 265 194 l 265 969 l 71 969 l 71 0 l 847 0 q 1121 114 1007 0 q 1234 388 1234 227 l 1234 969 l 1040 969 l 1040 388 m 469 1219 l 546 1161 l 653 1303 l 760 1161 l 837 1219 l 653 1465 l 469 1219 z "},"Ü":{"ha":1305,"x_min":71,"x_max":1234,"o":"m 1040 388 q 984 251 1040 308 q 847 194 927 194 l 265 194 l 265 969 l 71 969 l 71 0 l 847 0 q 1121 114 1007 0 q 1234 388 1234 227 l 1234 969 l 1040 969 l 1040 388 m 677 1299 l 774 1299 l 774 1396 l 677 1396 l 677 1299 m 532 1299 l 629 1299 l 629 1396 l 532 1396 l 532 1299 z "},"Ý":{"ha":1304,"x_min":71,"x_max":1233,"o":"m 989 969 l 653 533 l 652 533 l 316 969 l 71 969 l 555 340 l 555 0 l 749 0 l 749 340 l 1233 969 l 989 969 m 721 1419 l 565 1162 l 671 1119 l 827 1376 l 721 1419 z "},"Þ":{"ha":1257,"x_min":71,"x_max":1186,"o":"m 265 344 l 265 635 l 847 635 q 949 592 907 635 q 992 490 992 550 q 949 387 992 429 q 847 344 907 344 l 265 344 m 265 829 l 265 975 l 71 975 l 71 0 l 265 0 l 265 151 l 847 151 q 1086 250 987 151 q 1186 490 1186 349 q 1086 730 1186 630 q 847 829 987 829 l 265 829 z "},"ß":{"ha":1305,"x_min":71,"x_max":1234,"o":"m 71 972 l 71 -191 l 265 -191 l 265 778 l 944 778 q 1013 750 984 778 q 1040 682 1040 722 q 1013 613 1040 641 q 944 585 984 585 l 653 585 l 653 391 l 944 391 q 1013 362 984 391 q 1040 294 1040 334 q 1013 225 1040 254 q 944 197 984 197 l 362 197 l 362 3 l 944 3 q 1149 88 1064 3 q 1234 294 1234 173 q 1160 488 1234 404 q 1234 682 1234 570 q 1149 887 1234 802 q 944 972 1064 972 l 71 972 z "},"à":{"ha":1305,"x_min":71,"x_max":1234,"o":"m 265 485 l 265 776 l 847 776 q 984 719 927 776 q 1040 582 1040 662 l 1040 485 l 265 485 m 71 969 l 71 0 l 265 0 l 265 291 l 1040 291 l 1040 0 l 1234 0 l 1234 582 q 1121 856 1234 742 q 847 969 1007 969 l 71 969 m 581 1419 l 475 1375 l 637 1118 l 742 1162 l 581 1419 z "},"á":{"ha":1305,"x_min":71,"x_max":1234,"o":"m 265 485 l 265 776 l 847 776 q 984 719 927 776 q 1040 582 1040 662 l 1040 485 l 265 485 m 71 969 l 71 0 l 265 0 l 265 291 l 1040 291 l 1040 0 l 1234 0 l 1234 582 q 1121 856 1234 742 q 847 969 1007 969 l 71 969 m 722 1419 l 566 1162 l 671 1119 l 827 1376 l 722 1419 z "},"â":{"ha":1305,"x_min":71,"x_max":1234,"o":"m 265 485 l 265 776 l 847 776 q 984 719 927 776 q 1040 582 1040 662 l 1040 485 l 265 485 m 71 969 l 71 0 l 265 0 l 265 291 l 1040 291 l 1040 0 l 1234 0 l 1234 582 q 1121 856 1234 742 q 847 969 1007 969 l 71 969 m 469 1219 l 546 1161 l 653 1303 l 760 1161 l 837 1219 l 653 1465 l 469 1219 z "},"ã":{"ha":1305,"x_min":71,"x_max":1234,"o":"m 265 485 l 265 776 l 847 776 q 984 719 927 776 q 1040 582 1040 662 l 1040 485 l 265 485 m 71 969 l 71 0 l 265 0 l 265 291 l 1040 291 l 1040 0 l 1234 0 l 1234 582 q 1121 856 1234 742 q 847 969 1007 969 l 71 969 m 619 1305 q 748 1252 684 1252 q 781 1255 764 1252 q 917 1369 871 1275 l 830 1412 q 761 1350 804 1360 q 680 1379 726 1343 q 518 1428 598 1447 q 389 1314 431 1408 l 477 1274 q 541 1334 500 1324 q 619 1305 574 1341 z "},"ä":{"ha":1305,"x_min":71,"x_max":1234,"o":"m 265 485 l 265 776 l 847 776 q 984 719 927 776 q 1040 582 1040 662 l 1040 485 l 265 485 m 71 969 l 71 0 l 265 0 l 265 291 l 1040 291 l 1040 0 l 1234 0 l 1234 582 q 1121 856 1234 742 q 847 969 1007 969 l 71 969 m 677 1299 l 774 1299 l 774 1396 l 677 1396 l 677 1299 m 532 1299 l 629 1299 l 629 1396 l 532 1396 l 532 1299 z "},"å":{"ha":1305,"x_min":71,"x_max":1234,"o":"m 265 485 l 265 776 l 847 776 q 984 719 927 776 q 1040 582 1040 662 l 1040 485 l 265 485 m 71 969 l 71 0 l 265 0 l 265 291 l 1040 291 l 1040 0 l 1234 0 l 1234 582 q 1121 856 1234 742 q 847 969 1007 969 l 71 969 m 653 1257 q 602 1278 623 1257 q 580 1329 580 1299 q 602 1381 580 1360 q 653 1402 623 1402 q 704 1381 683 1402 q 726 1329 726 1360 q 704 1278 726 1299 q 653 1257 683 1257 m 653 1499 q 533 1449 583 1499 q 484 1329 484 1400 q 533 1209 484 1259 q 653 1160 583 1160 q 773 1209 723 1160 q 823 1329 823 1259 q 773 1449 823 1400 q 653 1499 723 1499 z "},"æ":{"ha":2275,"x_min":71,"x_max":2204,"o":"m 265 485 l 265 582 q 322 719 265 662 q 459 776 379 776 l 1040 776 l 1040 485 l 265 485 m 459 969 q 185 856 298 969 q 71 582 71 742 l 71 0 l 265 0 l 265 291 l 1040 291 l 1040 0 l 2204 0 l 2204 194 l 1234 194 l 1234 388 l 2107 388 l 2107 582 l 1234 582 l 1234 776 l 2204 776 l 2204 969 l 459 969 z "},"ç":{"ha":1305,"x_min":71,"x_max":1234,"o":"m 71 968 l 71 -1 l 538 -1 l 507 -248 l 604 -248 l 697 -1 l 1234 -1 l 1234 290 l 1040 290 l 1040 193 l 265 193 l 265 774 l 1040 774 l 1040 677 l 1234 677 l 1234 968 l 71 968 z "},"è":{"ha":1305,"x_min":71,"x_max":1234,"o":"m 71 969 l 71 0 l 1234 0 l 1234 194 l 265 194 l 265 388 l 1234 388 l 1234 582 l 265 582 l 265 776 l 1234 776 l 1234 969 l 71 969 m 581 1419 l 475 1375 l 637 1118 l 742 1162 l 581 1419 z "},"é":{"ha":1305,"x_min":71,"x_max":1234,"o":"m 71 969 l 71 0 l 1234 0 l 1234 194 l 265 194 l 265 388 l 1234 388 l 1234 582 l 265 582 l 265 776 l 1234 776 l 1234 969 l 71 969 m 722 1419 l 566 1162 l 671 1119 l 827 1376 l 722 1419 z "},"ê":{"ha":1305,"x_min":71,"x_max":1234,"o":"m 71 969 l 71 0 l 1234 0 l 1234 194 l 265 194 l 265 388 l 1234 388 l 1234 582 l 265 582 l 265 776 l 1234 776 l 1234 969 l 71 969 m 469 1219 l 546 1161 l 653 1303 l 760 1161 l 837 1219 l 653 1465 l 469 1219 z "},"ë":{"ha":1305,"x_min":71,"x_max":1234,"o":"m 71 969 l 71 0 l 1234 0 l 1234 194 l 265 194 l 265 388 l 1234 388 l 1234 582 l 265 582 l 265 776 l 1234 776 l 1234 969 l 71 969 m 677 1299 l 774 1299 l 774 1396 l 677 1396 l 677 1299 m 532 1299 l 629 1299 l 629 1396 l 532 1396 l 532 1299 z "},"ì":{"ha":417,"x_min":71,"x_max":346,"o":"m 152 0 l 346 0 l 346 969 l 152 969 l 152 0 m 176 1419 l 71 1375 l 233 1118 l 338 1162 l 176 1419 z "},"í":{"ha":414,"x_min":71,"x_max":343,"o":"m 71 0 l 265 0 l 265 969 l 71 969 l 71 0 m 237 1419 l 81 1162 l 186 1119 l 343 1376 l 237 1419 z "},"î":{"ha":511,"x_min":71,"x_max":440,"o":"m 159 0 l 353 0 l 353 969 l 159 969 l 159 0 m 71 1219 l 149 1161 l 256 1303 l 362 1161 l 440 1219 l 256 1465 l 71 1219 z "},"ï":{"ha":385,"x_min":71,"x_max":314,"o":"m 96 0 l 290 0 l 290 969 l 96 969 l 96 0 m 217 1299 l 314 1299 l 314 1396 l 217 1396 l 217 1299 m 71 1299 l 168 1299 l 168 1396 l 71 1396 l 71 1299 z "},"ð":{"ha":1402,"x_min":71,"x_max":1331,"o":"m 1137 388 q 1081 251 1137 308 q 944 194 1024 194 l 362 194 l 362 388 l 895 388 l 895 582 l 362 582 l 362 776 l 944 776 q 1081 719 1024 776 q 1137 582 1137 662 l 1137 388 m 168 969 l 168 582 l 71 582 l 71 388 l 168 388 l 168 0 l 944 0 q 1218 114 1104 0 q 1331 388 1331 227 l 1331 582 q 1218 856 1331 742 q 944 969 1104 969 l 168 969 z "},"ñ":{"ha":1305,"x_min":71,"x_max":1234,"o":"m 1040 969 l 1040 234 l 305 969 l 71 969 l 71 0 l 265 0 l 265 735 l 1000 0 l 1234 0 l 1234 969 l 1040 969 m 619 1305 q 748 1252 684 1252 q 781 1255 764 1252 q 917 1369 871 1275 l 830 1412 q 761 1350 804 1360 q 680 1379 726 1343 q 518 1428 598 1447 q 389 1314 431 1408 l 477 1274 q 541 1334 500 1324 q 619 1305 574 1341 z "},"ò":{"ha":1305,"x_min":71,"x_max":1234,"o":"m 1040 388 q 984 251 1040 308 q 847 194 927 194 l 265 194 l 265 582 q 322 719 265 662 q 459 776 379 776 l 1040 776 l 1040 388 m 71 0 l 847 0 q 1121 114 1007 0 q 1234 388 1234 227 l 1234 969 l 459 969 q 185 856 298 969 q 71 582 71 742 l 71 0 m 581 1419 l 475 1375 l 637 1118 l 742 1162 l 581 1419 z "},"ó":{"ha":1305,"x_min":71,"x_max":1234,"o":"m 1040 388 q 984 251 1040 308 q 847 194 927 194 l 265 194 l 265 582 q 322 719 265 662 q 459 776 379 776 l 1040 776 l 1040 388 m 71 0 l 847 0 q 1121 114 1007 0 q 1234 388 1234 227 l 1234 969 l 459 969 q 185 856 298 969 q 71 582 71 742 l 71 0 m 722 1419 l 566 1162 l 671 1119 l 827 1376 l 722 1419 z "},"ô":{"ha":1305,"x_min":71,"x_max":1234,"o":"m 1040 388 q 984 251 1040 308 q 847 194 927 194 l 265 194 l 265 582 q 322 719 265 662 q 459 776 379 776 l 1040 776 l 1040 388 m 71 0 l 847 0 q 1121 114 1007 0 q 1234 388 1234 227 l 1234 969 l 459 969 q 185 856 298 969 q 71 582 71 742 l 71 0 m 469 1219 l 546 1161 l 653 1303 l 760 1161 l 837 1219 l 653 1465 l 469 1219 z "},"õ":{"ha":1305,"x_min":71,"x_max":1234,"o":"m 1040 388 q 984 251 1040 308 q 847 194 927 194 l 265 194 l 265 582 q 322 719 265 662 q 459 776 379 776 l 1040 776 l 1040 388 m 71 0 l 847 0 q 1121 114 1007 0 q 1234 388 1234 227 l 1234 969 l 459 969 q 185 856 298 969 q 71 582 71 742 l 71 0 m 619 1305 q 748 1252 684 1252 q 781 1255 764 1252 q 917 1369 871 1275 l 830 1412 q 761 1350 804 1360 q 680 1379 726 1343 q 518 1428 598 1447 q 389 1314 431 1408 l 477 1274 q 541 1334 500 1324 q 619 1305 574 1341 z "},"ö":{"ha":1305,"x_min":71,"x_max":1234,"o":"m 1040 388 q 984 251 1040 308 q 847 194 927 194 l 265 194 l 265 582 q 322 719 265 662 q 459 776 379 776 l 1040 776 l 1040 388 m 71 0 l 847 0 q 1121 114 1007 0 q 1234 388 1234 227 l 1234 969 l 459 969 q 185 856 298 969 q 71 582 71 742 l 71 0 m 677 1299 l 774 1299 l 774 1396 l 677 1396 l 677 1299 m 532 1299 l 629 1299 l 629 1396 l 532 1396 l 532 1299 z "},"ø":{"ha":1305,"x_min":71,"x_max":1234,"o":"m 1040 776 l 1040 388 q 984 251 1040 308 q 847 194 927 194 l 614 194 l 910 776 l 1040 776 m 265 194 l 265 582 q 322 719 265 662 q 459 776 379 776 l 692 776 l 396 194 l 265 194 m 1093 1136 l 920 1224 l 791 970 l 459 970 q 185 856 298 970 q 71 582 71 743 l 71 1 l 297 1 l 212 -165 l 385 -254 l 515 1 l 847 1 q 1121 114 1007 1 q 1234 388 1234 228 l 1234 970 l 1008 970 l 1093 1136 z "},"ù":{"ha":1305,"x_min":71,"x_max":1234,"o":"m 1040 388 q 984 251 1040 308 q 847 194 927 194 l 265 194 l 265 969 l 71 969 l 71 0 l 847 0 q 1121 114 1007 0 q 1234 388 1234 227 l 1234 969 l 1040 969 l 1040 388 m 581 1419 l 475 1375 l 637 1118 l 742 1162 l 581 1419 z "},"ú":{"ha":1305,"x_min":71,"x_max":1234,"o":"m 1040 388 q 984 251 1040 308 q 847 194 927 194 l 265 194 l 265 969 l 71 969 l 71 0 l 847 0 q 1121 114 1007 0 q 1234 388 1234 227 l 1234 969 l 1040 969 l 1040 388 m 722 1419 l 566 1162 l 671 1119 l 827 1376 l 722 1419 z "},"û":{"ha":1305,"x_min":71,"x_max":1234,"o":"m 1040 388 q 984 251 1040 308 q 847 194 927 194 l 265 194 l 265 969 l 71 969 l 71 0 l 847 0 q 1121 114 1007 0 q 1234 388 1234 227 l 1234 969 l 1040 969 l 1040 388 m 469 1219 l 546 1161 l 653 1303 l 760 1161 l 837 1219 l 653 1465 l 469 1219 z "},"ü":{"ha":1305,"x_min":71,"x_max":1234,"o":"m 1040 388 q 984 251 1040 308 q 847 194 927 194 l 265 194 l 265 969 l 71 969 l 71 0 l 847 0 q 1121 114 1007 0 q 1234 388 1234 227 l 1234 969 l 1040 969 l 1040 388 m 677 1299 l 774 1299 l 774 1396 l 677 1396 l 677 1299 m 532 1299 l 629 1299 l 629 1396 l 532 1396 l 532 1299 z "},"ý":{"ha":1304,"x_min":71,"x_max":1233,"o":"m 989 969 l 653 533 l 652 533 l 316 969 l 71 969 l 555 340 l 555 0 l 749 0 l 749 340 l 1233 969 l 989 969 m 721 1419 l 565 1162 l 671 1119 l 827 1376 l 721 1419 z "},"þ":{"ha":1257,"x_min":71,"x_max":1186,"o":"m 265 344 l 265 635 l 847 635 q 949 592 907 635 q 992 490 992 550 q 949 387 992 429 q 847 344 907 344 l 265 344 m 265 829 l 265 975 l 71 975 l 71 0 l 265 0 l 265 151 l 847 151 q 1086 250 987 151 q 1186 490 1186 349 q 1086 730 1186 630 q 847 829 987 829 l 265 829 z "},"ÿ":{"ha":1304,"x_min":71,"x_max":1233,"o":"m 989 969 l 653 533 l 652 533 l 316 969 l 71 969 l 555 340 l 555 0 l 749 0 l 749 340 l 1233 969 l 989 969 m 677 1232 l 774 1232 l 774 1329 l 677 1329 l 677 1232 m 532 1232 l 629 1232 l 629 1329 l 532 1329 l 532 1232 z "},"ı":{"ha":336,"x_min":71,"x_max":265,"o":"m 71 0 l 265 0 l 265 969 l 71 969 l 71 0 z "},"ˆ":{"ha":511,"x_min":71,"x_max":439,"o":"m 71 941 l 149 883 l 256 1025 l 362 883 l 439 941 l 256 1187 l 71 941 z "},"˚":{"ha":481,"x_min":71,"x_max":410,"o":"m 241 979 q 189 1000 211 979 q 168 1051 168 1021 q 189 1103 168 1082 q 241 1124 211 1124 q 292 1103 271 1124 q 313 1051 313 1082 q 292 1000 313 1021 q 241 979 271 979 m 241 1221 q 121 1171 171 1221 q 71 1051 71 1122 q 121 931 71 981 q 241 882 171 882 q 361 931 311 882 q 410 1051 410 981 q 361 1171 410 1122 q 241 1221 311 1221 z "},"˜":{"ha":671,"x_min":71,"x_max":600,"o":"m 302 1027 q 431 974 366 974 q 464 977 447 974 q 600 1091 553 997 l 513 1134 q 444 1072 487 1082 q 363 1101 408 1065 q 201 1150 281 1168 q 71 1036 114 1130 l 159 996 q 223 1056 184 1046 q 302 1027 256 1063 z "},"‘":{"ha":288,"x_min":71,"x_max":216,"o":"m 71 825 l 216 825 l 216 1164 l 71 1164 l 71 825 z "},"’":{"ha":288,"x_min":71,"x_max":216,"o":"m 71 825 l 216 825 l 216 1164 l 71 1164 l 71 825 z "},"“":{"ha":481,"x_min":71,"x_max":410,"o":"m 71 825 l 216 825 l 216 1164 l 71 1164 l 71 825 m 265 825 l 410 825 l 410 1164 l 265 1164 l 265 825 z "},"”":{"ha":481,"x_min":71,"x_max":410,"o":"m 71 825 l 216 825 l 216 1164 l 71 1164 l 71 825 m 265 825 l 410 825 l 410 1164 l 265 1164 l 265 825 z "},"€":{"ha":1305,"x_min":71,"x_max":1234,"o":"m 71 654 l 71 509 l 168 509 l 168 460 l 71 460 l 71 315 l 175 315 q 307 90 201 180 q 556 0 415 0 l 1234 0 l 1234 291 l 1040 291 l 1040 194 l 556 194 q 446 228 496 194 q 376 315 398 261 l 895 315 l 895 460 l 362 460 l 362 509 l 895 509 l 895 654 l 376 654 q 446 742 398 709 q 556 776 496 776 l 1040 776 l 1040 679 l 1234 679 l 1234 969 l 556 969 q 307 879 415 969 q 175 654 201 790 l 71 654 z "},"−":{"ha":966,"x_min":71,"x_max":895,"o":"m 71 388 l 895 388 l 895 582 l 71 582 l 71 388 z "},"":{"ha":728,"x_min":0,"x_max":0,"o":""},"":{"ha":733,"x_min":0,"x_max":0,"o":""}}}
